<svg xmlns="http://www.w3.org/2000/svg" viewBox="0 0 64 64" fill="none">
  <rect width="64" height="64" rx="16" fill="#E8650A" />
  <g transform="translate(32 32) scale(0.4) translate(-64 -60)">
    <path
      d="M103 76A42 42 0 0 1 98 84L107 90A52 52 0 0 1 94 103L88 94A42 42 0 0 1 71 102L72 111A52 52 0 0 1 54 111L56 101A42 42 0 0 1 39 94L33 102A52 52 0 0 1 20 88L29 83A42 42 0 0 1 22 65L12 66A52 52 0 0 1 13 48L23 51A42 42 0 0 1 31 34L24 27A52 52 0 0 1 37 15L42 24A42 42 0 0 1 60 18L60 8A52 52 0 0 1 78 10L75 19A42 42 0 0 1 83 23A7 7 0 0 1 77 35A28 28 0 1 0 90 71A7 7 0 0 1 103 76Z"
      fill="#F5F5F5"
    />
    <path
      d="M96.28 33.13 L103.97 26.74 A52 52 0 0 1 108.22 32.64 L99.71 37.90 A42 42 0 0 1 101.51 41.10 L123.83 29.84 A67 67 0 0 1 129.35 45.21 L104.96 50.73 A42 42 0 0 1 105.62 54.34 L115.53 52.99 A52 52 0 0 1 116.00 60.28 L106.00 60.23 A42 42 0 0 0 96.28 33.13Z"
      fill="#F5F5F5"
    />
    <circle cx="64" cy="60" r="7" fill="#F5F5F5" />
  </g>
</svg>
