<svg xmlns="http://www.w3.org/2000/svg" viewBox="0 0 134 120" fill="none">
  <path
    fill="#E8650A"
    d="M103 76A42 42 0 0 1 98 84L107 90A52 52 0 0 1 94 103L88 94A42 42 0 0 1 71 102L72 111A52 52 0 0 1 54 111L56 101A42 42 0 0 1 39 94L33 102A52 52 0 0 1 20 88L29 83A42 42 0 0 1 22 65L12 66A52 52 0 0 1 13 48L23 51A42 42 0 0 1 31 34L24 27A52 52 0 0 1 37 15L42 24A42 42 0 0 1 60 18L60 8A52 52 0 0 1 78 10L75 19A42 42 0 0 1 83 23A7 7 0 0 1 77 35A28 28 0 1 0 90 71A7 7 0 0 1 103 76Z"
  />
  <path
    fill="#F5F5F5"
    d="M96.28 33.13L103.97 26.74A52 52 0 0 1 108.22 32.64L99.71 37.9A42 42 0 0 1 101.51 41.1L123.83 29.84A67 67 0 0 1 129.35 45.21L104.96 50.73A42 42 0 0 1 105.62 54.34L115.53 52.99A52 52 0 0 1 116 60.28L106 60.23A42 42 0 0 0 96.28 33.13Z"
  />
</svg>
